<?xml version="1.0"?><svg width="1538.5" height="1870.5" xmlns="http://www.w3.org/2000/svg">
 <title>creek united</title>
 <g>
  <title>Layer 1</title>
  <path d="m790.937683,118.814919l5.577209,0l24.024719,12.079063q24.024841,12.079025 31.74707,15.827682q7.722351,3.748657 52.554321,24.366364q44.83197,20.617706 46.333557,20.825989q1.501526,0.208267 23.810303,9.788177q22.308716,9.579971 34.321167,14.161636q12.012329,4.58168 34.750122,12.495544q22.737915,7.913895 28.744263,9.996475q6.006226,2.082642 15.015747,4.998245q9.009399,2.915619 23.167236,7.080841q14.157593,4.165131 36.037598,9.996429q21.879761,5.831238 42.472412,10.413025q20.592651,4.581635 26.598877,5.831238q6.006226,1.249481 38.182251,7.08075q32.176147,5.83139 40.327393,7.080933q8.151245,1.249573 39.898315,6.247894q31.74707,4.99823 32.176147,4.99823q0.428955,0 30.889038,5.83136q30.459961,5.831329 30.674438,6.03952l0.2146,0.208252l-1.286987,62.061707q-1.287109,62.06134 -6.435303,160.359772q-5.148193,98.298462 -8.151245,137.451294q-3.003174,39.152832 -6.864258,67.05957q-3.861084,27.906799 -9.009277,52.897949q-5.148193,24.990967 -11.154419,50.398193q-6.006226,25.407227 -10.725342,44.566956q-4.719116,19.159912 -11.154297,41.235352q-6.435303,22.075562 -7.72229,26.657227q-1.287109,4.581726 -3.861206,11.662537q-2.574097,7.080872 -6.006226,17.493896q-3.432007,10.412903 -10.725342,29.989197q-7.293213,19.576538 -12.012329,31.239014q-4.719238,11.662476 -11.583496,27.90686q-6.864136,16.244263 -17.589478,39.152588q-10.725342,22.908813 -12.870483,26.657349q-2.14502,3.748657 -15.659058,27.28186q-13.513916,23.533447 -16.30249,27.906738q-2.788696,4.373657 -13.299438,22.075684q-10.510864,17.702026 -13.728516,22.491943q-3.217529,4.790039 -9.86731,14.994751q-6.64978,10.204712 -10.725342,15.827759q-4.075684,5.622925 -9.438354,13.328613q-5.362671,7.705566 -10.296387,14.161499q-4.933594,6.456299 -7.72229,10.82959q-2.788574,4.373413 -8.151123,11.245972q-5.362793,6.872559 -10.296387,13.745117q-4.933716,6.872559 -10.725342,14.161865q-5.791748,7.289063 -9.867432,12.495483q-4.075684,5.206299 -17.375366,19.784668q-13.299683,14.578003 -31.318604,33.321533q-18.018799,18.743164 -31.747559,32.071899q-13.728394,13.328491 -18.233032,16.869019q-4.504761,3.540405 -21.021729,17.910278q-16.516968,14.369873 -20.163696,17.493896q-3.646606,3.123901 -18.018616,15.411133q-14.371948,12.287231 -18.876648,15.827759q-4.504639,3.540405 -10.296326,8.330322q-5.791687,4.789917 -16.088013,13.120361q-10.296387,8.330444 -15.659058,12.287354q-5.362671,3.956909 -10.296326,7.080811q-4.933716,3.123779 -18.018616,10.82959q-13.084961,7.705566 -17.160583,10.412964q-4.075623,2.707275 -9.223816,5.622803q-5.148193,2.915771 -10.725342,6.664429q-5.577209,3.748535 -8.151245,5.414673q-2.574158,1.666138 -11.154419,5.831299q-8.580261,4.165283 -20.592651,9.580078q-12.012451,5.414551 -16.731567,7.080688l-4.719177,1.666138l-5.148132,-1.249634q-5.148193,-1.24939 -11.154419,-4.165161q-6.006226,-2.915527 -20.163696,-9.99646q-14.157471,-7.080811 -16.30249,-8.746948q-2.145081,-1.666138 -10.939941,-7.28894q-8.7948,-5.623169 -13.299438,-8.330566q-4.504639,-2.707275 -17.5896,-10.412842q-13.0849,-7.705811 -18.018616,-10.82959q-4.933594,-3.123779 -10.296265,-7.080688q-5.362732,-3.956909 -12.226929,-9.371826q-6.864258,-5.414795 -18.233154,-14.786255q-11.368835,-9.371826 -19.734558,-16.244263q-8.365723,-6.872559 -24.453613,-20.825928q-16.087952,-13.953613 -20.592529,-17.494019q-4.504578,-3.540283 -19.734497,-16.660522q-15.22998,-13.120361 -16.946045,-14.786499q-1.716064,-1.66626 -15.22998,-14.786621q-13.514008,-13.120117 -18.876678,-18.743286q-5.362671,-5.622925 -23.595825,-24.991089q-18.233093,-19.368286 -21.879761,-23.741577q-3.646545,-4.373413 -10.725311,-12.911987q-7.078735,-8.538696 -11.154358,-13.745117q-4.075623,-5.206665 -8.151276,-10.829712q-4.075684,-5.622803 -8.580322,-11.662476q-4.504639,-6.039429 -8.151245,-10.829468q-3.646667,-4.789917 -6.220703,-8.538452q-2.574097,-3.748779 -7.078796,-9.78833q-4.504639,-6.039551 -7.722229,-10.829468q-3.21759,-4.789917 -8.580261,-12.495483q-5.362701,-7.705811 -8.151306,-12.079102q-2.788574,-4.373535 -9.009277,-13.745117q-6.220734,-9.371704 -8.151276,-12.912231q-1.930573,-3.540527 -10.725372,-17.910034q-8.79483,-14.370117 -11.583374,-18.743652q-2.788605,-4.373291 -13.942993,-23.949707q-11.154388,-19.57666 -16.731567,-29.572876q-5.577209,-9.996582 -9.86731,-18.74353q-4.290131,-8.746826 -12.012421,-26.240601q-7.72226,-17.493652 -7.72226,-17.910278q0,-0.416626 -7.72226,-19.15979q-7.722244,-18.74353 -12.012375,-29.572998q-4.290131,-10.829468 -12.01239,-32.904907q-7.72226,-22.075623 -15.44455,-47.066772q-7.72226,-24.991028 -17.160568,-60.811768q-9.438324,-35.820129 -13.299454,-53.313721q-3.86113,-17.493408 -10.725357,-50.814758q-6.864227,-33.321533 -8.151276,-43.734558q-1.287048,-10.412903 -5.577194,-63.727417q-4.290131,-53.314453 -5.577179,-80.388184q-1.287048,-27.073792 -3.003098,-57.479675q-1.716064,-30.405792 -4.719162,-99.548035q-3.003098,-69.142029 -3.003098,-97.881958l0,-28.740112l2.788589,-1.457733q2.788589,-1.457916 15.230011,-3.540466q12.441422,-2.082611 34.321152,-5.414825q21.879745,-3.332184 66.497223,-10.82962q44.617493,-7.497406 63.923157,-10.829529q19.305634,-3.332153 51.052734,-10.413025q31.74707,-7.080841 54.913849,-13.328583q23.166779,-6.247787 39.898285,-11.662506q16.731567,-5.414795 26.169922,-8.330414q9.438324,-2.915634 18.018646,-5.831284q8.580261,-2.915665 34.321045,-12.495575q25.740662,-9.57988 48.263733,-19.368134q22.523071,-9.788177 24.024658,-9.99646q1.501526,-0.208267 21.665161,-9.371643q20.163696,-9.163422 36.466309,-16.660751q16.30249,-7.497345 32.176025,-14.994736q15.873535,-7.497314 39.46936,-19.57634l23.595764,-12.079063l5.577209,0z" stroke-width="2px" stroke="#000000" fill-rule="evenodd" fill="#ffff00" id="svg_1"/>
  <path id="svg_2" d="m769.335449,132.963272l5.577209,0l24.024719,12.079071q24.024841,12.079025 31.74707,15.827682q7.722351,3.748657 52.554321,24.366364q44.83197,20.617691 46.333557,20.825989q1.501526,0.208267 23.810303,9.788177q22.308716,9.579956 34.321167,14.161621q12.012329,4.581696 34.750122,12.495544q22.737854,7.91391 28.744202,9.99649q6.006226,2.082642 15.015747,4.99823q9.009399,2.915619 23.167236,7.080841q14.157593,4.165131 36.037598,9.996429q21.879761,5.831238 42.472412,10.413025q20.592651,4.581635 26.598877,5.831238q6.006226,1.249481 38.182251,7.08075q32.176147,5.83139 40.327393,7.080933q8.151245,1.249573 39.898315,6.247894q31.74707,4.99823 32.176147,4.99823q0.428955,0 30.889038,5.83136q30.459961,5.831329 30.674438,6.03952l0.2146,0.208252l-1.286987,62.061707q-1.287109,62.06134 -6.435303,160.359802q-5.148193,98.298462 -8.151245,137.451294q-3.003174,39.152832 -6.864258,67.05957q-3.861084,27.906799 -9.009277,52.897949q-5.148193,24.990967 -11.154419,50.398193q-6.006226,25.407227 -10.725342,44.566956q-4.719116,19.159912 -11.154297,41.235352q-6.435303,22.075562 -7.72229,26.657227q-1.287109,4.581726 -3.861206,11.662537q-2.574097,7.080872 -6.006226,17.493896q-3.432007,10.412903 -10.725342,29.989136q-7.293213,19.576538 -12.012329,31.239014q-4.719238,11.662476 -11.583496,27.90686q-6.864136,16.244263 -17.589478,39.152588q-10.725342,22.908813 -12.870483,26.657349q-2.14502,3.748657 -15.659058,27.28186q-13.513916,23.533447 -16.30249,27.906738q-2.788696,4.373657 -13.299438,22.075684q-10.510864,17.702026 -13.728516,22.491943q-3.217529,4.790039 -9.86731,14.994751q-6.64978,10.204712 -10.725342,15.827759q-4.075684,5.622925 -9.438354,13.328613q-5.362671,7.705566 -10.296387,14.161499q-4.933594,6.456299 -7.72229,10.82959q-2.788574,4.373413 -8.151123,11.245972q-5.362793,6.872559 -10.296387,13.745117q-4.933716,6.872559 -10.725342,14.161865q-5.791748,7.289063 -9.867432,12.495483q-4.075684,5.206299 -17.375366,19.784668q-13.299683,14.578003 -31.318604,33.321533q-18.018799,18.743164 -31.747559,32.071899q-13.728333,13.328491 -18.232971,16.869019q-4.504761,3.540405 -21.021729,17.910278q-16.516968,14.369873 -20.163696,17.493896q-3.646606,3.123901 -18.018616,15.411133q-14.371948,12.287231 -18.876648,15.827759q-4.504639,3.540405 -10.296326,8.330322q-5.791687,4.789917 -16.088013,13.120361q-10.296387,8.330444 -15.659058,12.287354q-5.362671,3.956909 -10.296326,7.080811q-4.933716,3.123779 -18.018616,10.82959q-13.084961,7.705566 -17.160583,10.412964q-4.075623,2.707275 -9.223816,5.622803q-5.148193,2.915771 -10.725342,6.664429q-5.577209,3.748535 -8.151245,5.414673q-2.574158,1.666138 -11.154419,5.831299q-8.580261,4.165283 -20.592651,9.580078q-12.012451,5.414551 -16.731567,7.080688l-4.719177,1.666138l-5.148132,-1.249634q-5.148193,-1.24939 -11.154419,-4.165161q-6.006226,-2.915527 -20.163696,-9.99646q-14.157471,-7.080811 -16.30249,-8.746948q-2.145081,-1.666138 -10.939941,-7.28894q-8.7948,-5.623169 -13.299438,-8.330566q-4.504639,-2.707275 -17.5896,-10.412842q-13.0849,-7.705811 -18.018616,-10.82959q-4.933594,-3.123779 -10.296265,-7.080688q-5.362732,-3.956909 -12.226929,-9.371826q-6.864258,-5.414795 -18.233154,-14.786255q-11.368835,-9.371826 -19.734558,-16.244263q-8.365723,-6.872559 -24.453613,-20.825928q-16.087952,-13.953613 -20.592529,-17.494019q-4.504578,-3.540283 -19.734497,-16.660522q-15.22998,-13.120361 -16.946045,-14.786499q-1.716095,-1.66626 -15.230011,-14.786621q-13.514008,-13.120117 -18.876678,-18.743286q-5.362671,-5.622925 -23.595825,-24.991089q-18.233093,-19.368286 -21.879761,-23.741577q-3.646545,-4.373413 -10.725311,-12.911987q-7.078735,-8.538696 -11.154358,-13.745117q-4.075623,-5.206665 -8.151276,-10.829712q-4.075684,-5.622803 -8.580322,-11.662476q-4.504639,-6.039429 -8.151245,-10.829468q-3.646667,-4.789917 -6.220703,-8.538452q-2.574097,-3.748779 -7.078796,-9.78833q-4.504639,-6.039551 -7.722229,-10.829468q-3.21759,-4.789917 -8.580261,-12.495483q-5.362701,-7.705811 -8.151306,-12.079102q-2.788574,-4.373535 -9.009277,-13.745117q-6.220734,-9.371704 -8.151276,-12.912231q-1.930573,-3.540527 -10.725372,-17.910034q-8.79483,-14.370117 -11.583374,-18.743652q-2.788605,-4.373291 -13.942993,-23.949707q-11.154388,-19.57666 -16.731567,-29.572876q-5.577209,-9.996582 -9.86731,-18.74353q-4.290131,-8.746826 -12.012421,-26.240601q-7.722244,-17.493652 -7.722244,-17.910278q0,-0.416626 -7.72226,-19.15979q-7.722244,-18.74353 -12.012375,-29.572998q-4.290131,-10.829468 -12.01239,-32.904846q-7.72226,-22.075623 -15.44455,-47.066772q-7.72226,-24.991028 -17.160568,-60.811768q-9.438324,-35.820129 -13.299454,-53.313721q-3.86113,-17.493408 -10.725357,-50.814758q-6.864227,-33.321533 -8.151276,-43.734558q-1.287048,-10.412903 -5.577194,-63.727417q-4.290131,-53.314453 -5.577179,-80.388184q-1.287048,-27.073792 -3.003098,-57.479675q-1.716064,-30.405823 -4.719162,-99.548065q-3.003098,-69.142029 -3.003098,-97.881958l0,-28.740112l2.788589,-1.457733q2.788589,-1.457916 15.230011,-3.540466q12.441422,-2.082611 34.321152,-5.414825q21.879745,-3.332184 66.497223,-10.82962q44.617477,-7.497406 63.923141,-10.829529q19.305634,-3.332153 51.052734,-10.413025q31.74707,-7.080841 54.913849,-13.328583q23.166779,-6.247772 39.898285,-11.662506q16.731567,-5.414795 26.169922,-8.330399q9.438324,-2.915634 18.018646,-5.831299q8.580292,-2.915649 34.321075,-12.49556q25.740662,-9.579895 48.263733,-19.368134q22.523071,-9.788193 24.024658,-9.99646q1.501526,-0.208282 21.665161,-9.371643q20.163696,-9.163422 36.466309,-16.660751q16.30249,-7.49736 32.176025,-14.994736q15.873535,-7.497314 39.46936,-19.57634l23.595764,-12.079071l5.577209,0z" stroke-width="2px" stroke="#000000" fill-rule="evenodd" fill="#ffff00"/>
  <path d="m789.01825,60.611141l6.01947,0l25.930176,13.037998q25.930054,13.037949 34.264771,17.084244q8.334656,4.046249 56.722107,26.300766q48.387451,22.254471 50.008057,22.479263q1.620667,0.224792 25.698425,10.565247q24.077637,10.340485 37.04248,15.28595q12.964966,4.945435 37.505981,13.487579q24.541382,8.542175 31.024048,10.790131q6.482666,2.247955 16.206665,5.395111q9.723755,3.147095 25.004272,7.642975q15.280396,4.495972 38.895386,10.790192q23.614868,6.29422 45.840698,11.239716q22.22583,4.945435 28.708374,6.29425q6.482544,1.348755 41.210327,7.643005q34.727905,6.29422 43.525635,7.642975q8.797607,1.348785 43.062378,6.743774q34.264771,5.395035 34.727905,5.395035q0.463013,0 33.338745,6.29422q32.875732,6.294189 33.107178,6.518982l0.231445,0.224792l-1.38916,66.988251q-1.38916,66.988281 -6.945557,173.090485q-5.556396,106.101868 -8.797607,148.362976q-3.241333,42.260986 -7.408569,72.383301q-4.16748,30.121826 -9.723877,57.096497q-5.556396,26.974976 -12.03894,54.399658q-6.482544,27.424744 -11.575928,48.105652q-5.093506,20.680908 -12.03894,44.509033q-6.945557,23.828003 -8.334717,28.773438q-1.38916,4.945435 -4.167236,12.588379q-2.77832,7.642944 -6.482666,18.88269q-3.704224,11.239502 -11.575928,32.370239q-7.871704,21.130859 -12.965088,33.71936q-5.093384,12.588379 -12.501953,30.122192q-7.408569,17.533936 -18.984619,42.261108q-11.575928,24.727173 -13.890991,28.773438q-2.315308,4.046265 -16.901001,29.447876q-14.585571,25.401611 -17.595337,30.122314q-3.009888,4.720703 -14.354248,23.828003q-11.34436,19.1073 -14.817139,24.27771q-3.4729,5.170166 -10.649902,16.184937q-7.177124,11.014893 -11.575928,17.084351q-4.398926,6.069336 -10.186768,14.386719q-5.787964,8.317383 -11.113037,15.285889q-5.324951,6.968628 -8.334717,11.689209q-3.009644,4.720703 -8.797607,12.138916q-5.788086,7.418091 -11.113037,14.836304q-5.324707,7.418213 -11.575806,15.285767q-6.251099,7.867798 -10.649902,13.487671q-4.398804,5.619873 -18.753052,21.355347q-14.354492,15.735596 -33.802368,35.966797q-19.447876,20.231445 -34.265259,34.618164q-14.817505,14.386597 -19.679199,18.20813q-4.862061,3.821655 -22.688965,19.332275q-17.826721,15.510742 -21.762451,18.882446q-3.935852,3.37207 -19.447266,16.634766q-15.511658,13.262817 -20.373535,17.084106q-4.861877,3.821655 -11.112854,8.991821q-6.251038,5.17041 -17.363892,14.161987q-11.112976,8.991699 -16.90094,13.262695q-5.787964,4.271118 -11.112854,7.642944q-5.325012,3.37207 -19.447571,11.689331q-14.122681,8.317383 -18.521545,11.239624q-4.398865,2.922363 -9.955322,6.069336q-5.556458,3.147217 -11.575928,7.193481q-6.019531,4.046265 -8.797729,5.844604q-2.778198,1.79834 -12.039001,6.294312q-9.260742,4.495728 -22.22583,10.340332q-12.965027,5.844482 -18.058411,7.642944l-5.093384,1.79834l-5.556519,-1.348755q-5.556396,-1.348755 -12.03894,-4.495728q-6.482544,-3.147217 -21.762817,-10.790161q-15.280212,-7.642944 -17.595398,-9.441284q-2.315186,-1.79834 -11.807495,-7.867676q-9.492249,-6.069458 -14.354126,-8.991821q-4.861938,-2.922241 -18.984558,-11.239502q-14.122681,-8.317505 -19.44751,-11.689331q-5.325012,-3.371826 -11.113037,-7.642944q-5.787903,-4.270996 -13.196533,-10.115601q-7.408569,-5.844727 -19.679016,-15.960327q-12.270386,-10.115723 -21.2995,-17.533936q-9.029236,-7.418091 -26.392944,-22.479248q-17.363831,-15.061279 -22.225647,-18.882568q-4.861877,-3.821533 -21.299744,-17.983521q-16.437866,-14.161987 -18.289978,-15.960205q-1.852203,-1.79834 -16.438019,-15.960327q-14.585754,-14.161987 -20.37381,-20.231323q-5.788025,-6.069458 -25.467133,-26.97522q-19.679108,-20.90564 -23.614929,-25.626343q-3.935822,-4.720703 -11.575928,-13.937134q-7.640137,-9.216553 -12.039001,-14.836304q-4.398834,-5.619751 -8.797699,-11.689331q-4.398834,-6.069336 -9.260742,-12.588379q-4.861908,-6.518921 -8.797699,-11.689087q-3.935852,-5.17041 -6.714081,-9.216553q-2.778198,-4.046265 -7.640137,-10.56543q-4.861877,-6.518921 -8.334656,-11.689087q-3.472809,-5.170166 -9.260773,-13.487549q-5.787964,-8.317383 -8.797699,-13.037964q-3.009735,-4.720703 -9.723816,-14.836304q-6.71402,-10.115845 -8.797699,-13.937256q-2.083649,-3.821411 -11.575928,-19.332153q-9.492279,-15.51062 -12.502014,-20.231323q-3.009735,-4.720703 -15.048706,-25.851074q-12.039001,-21.130615 -18.058472,-31.920654q-6.019501,-10.790161 -10.649872,-20.231445q-4.630402,-9.441284 -12.965088,-28.323853q-8.334656,-18.882446 -8.334656,-19.332031q0,-0.449951 -8.334686,-20.681152q-8.334686,-20.231323 -12.965057,-31.920776q-4.630371,-11.689575 -12.965042,-35.517578q-8.334702,-23.828125 -16.669357,-50.803223q-8.334686,-26.97522 -18.521515,-65.639526q-10.186829,-38.664307 -14.354172,-57.547058q-4.167343,-18.882446 -11.575943,-54.848999q-7.4086,-35.966187 -8.797714,-47.205811q-1.389114,-11.239624 -6.019501,-68.78656q-4.630386,-57.546997 -6.019485,-86.770081q-1.389114,-29.223083 -3.241272,-62.04248q-1.852142,-32.819733 -5.093422,-107.450958q-3.241249,-74.631195 -3.241249,-105.652588l0,-31.021484l3.00975,-1.573517q3.00972,-1.573578 16.437828,-3.821533q13.428108,-2.247864 37.043037,-5.844543q23.614899,-3.59668 71.770844,-11.689255q48.155914,-8.092529 68.992584,-11.68924q20.8367,-3.596771 55.101501,-11.239777q34.264771,-7.643005 59.268799,-14.38681q25.004059,-6.743866 43.062531,-12.588531q18.058533,-5.844696 28.245453,-8.991821q10.18689,-3.147095 19.447723,-6.294159q9.260803,-3.147156 37.043121,-13.487671q27.782104,-10.340485 52.091431,-20.905762q24.309143,-10.565247 25.92981,-10.790039q1.620667,-0.224792 23.383362,-10.115662q21.762756,-9.890907 39.358154,-17.983444q17.595459,-8.092552 34.727844,-16.185089q17.132385,-8.092545 42.599487,-21.130493l25.467041,-13.03801l6.01947,0l0,0.000011z" id="path2" stroke-width="2px" stroke="#000000" fill-rule="evenodd" fill="#000000"/>
  <path transform="translate(-2 0)" id="svg_4" d="m791.557495,125.555862l5.577209,0l24.024719,12.079071q24.024841,12.079025 31.74707,15.827682q7.722351,3.748657 52.554321,24.366364q44.83197,20.617691 46.333557,20.825989q1.501526,0.208267 23.810303,9.788177q22.308716,9.579956 34.321167,14.161621q12.012329,4.581696 34.750427,12.495544q22.737915,7.91391 28.744263,9.99649q6.006226,2.082642 15.015747,4.99823q9.009399,2.915619 23.167236,7.080841q14.157593,4.165131 36.037598,9.996429q21.879761,5.831238 42.472412,10.413025q20.592651,4.581635 26.598877,5.831238q6.006226,1.249481 38.182251,7.08075q32.176147,5.83139 40.327393,7.080933q8.151245,1.249573 39.898315,6.247894q31.74707,4.99823 32.176147,4.99823q0.428955,0 30.889038,5.83136q30.459961,5.831329 30.674438,6.03952l0.2146,0.208252l-1.286987,62.061707q-1.287109,62.06134 -6.435303,160.359863q-5.148193,98.298462 -8.151245,137.451294q-3.003174,39.152832 -6.864258,67.05957q-3.861084,27.906799 -9.009277,52.897949q-5.148193,24.990967 -11.154419,50.398193q-6.006226,25.407227 -10.725342,44.566956q-4.719116,19.159912 -11.154297,41.235352q-6.435303,22.075562 -7.72229,26.657227q-1.287109,4.581726 -3.861206,11.662537q-2.574097,7.080872 -6.006226,17.493896q-3.432007,10.412903 -10.725342,29.989075q-7.293213,19.576477 -12.012329,31.238953q-4.719238,11.662476 -11.583496,27.90686q-6.864136,16.244263 -17.589478,39.152588q-10.725342,22.908813 -12.870483,26.657349q-2.14502,3.748657 -15.659058,27.28186q-13.513916,23.533447 -16.30249,27.906738q-2.788696,4.373657 -13.299438,22.075684q-10.510864,17.702026 -13.728516,22.491943q-3.217529,4.790039 -9.86731,14.994751q-6.64978,10.204712 -10.725342,15.827759q-4.075684,5.622925 -9.438354,13.328613q-5.362671,7.705566 -10.296387,14.161499q-4.933594,6.456299 -7.72229,10.82959q-2.788574,4.373413 -8.151123,11.245972q-5.362793,6.872559 -10.296387,13.745117q-4.933716,6.872559 -10.725342,14.161865q-5.791748,7.289063 -9.867432,12.495483q-4.075684,5.206299 -17.375366,19.784668q-13.299683,14.578003 -31.318604,33.321533q-18.018799,18.743164 -31.747559,32.071899q-13.728394,13.328491 -18.233154,16.869019q-4.504761,3.540405 -21.021912,17.910278q-16.516968,14.369873 -20.163696,17.493896q-3.646606,3.123901 -18.018616,15.411133q-14.371948,12.287231 -18.876648,15.827759q-4.504639,3.540405 -10.296326,8.330322q-5.791687,4.789917 -16.088013,13.120361q-10.296387,8.330444 -15.659058,12.287354q-5.362671,3.956909 -10.296326,7.080811q-4.933716,3.123779 -18.018616,10.82959q-13.084961,7.705566 -17.160583,10.412964q-4.075623,2.707275 -9.223816,5.622803q-5.148193,2.915771 -10.725342,6.664429q-5.577209,3.748535 -8.151245,5.414673q-2.574158,1.666138 -11.154419,5.831299q-8.580261,4.165283 -20.592651,9.580078q-12.012451,5.414551 -16.731567,7.080688l-4.719177,1.666138l-5.148132,-1.249634q-5.148193,-1.24939 -11.154419,-4.165161q-6.006226,-2.915527 -20.163696,-9.99646q-14.157471,-7.080811 -16.30249,-8.746948q-2.145081,-1.666138 -10.939941,-7.28894q-8.7948,-5.623169 -13.299438,-8.330566q-4.504639,-2.707275 -17.5896,-10.412842q-13.0849,-7.705811 -18.018616,-10.82959q-4.933594,-3.123779 -10.296265,-7.080688q-5.362732,-3.956909 -12.226929,-9.371826q-6.864258,-5.414795 -18.233154,-14.786255q-11.368835,-9.371826 -19.734558,-16.244263q-8.365723,-6.872559 -24.453613,-20.825928q-16.087952,-13.953613 -20.592529,-17.494019q-4.504578,-3.540283 -19.734497,-16.660522q-15.22998,-13.120361 -16.946045,-14.786499q-1.716064,-1.66626 -15.229919,-14.786621q-13.513916,-13.120117 -18.876587,-18.743286q-5.362671,-5.622925 -23.595825,-24.991089q-18.233093,-19.368286 -21.879761,-23.741577q-3.646545,-4.373413 -10.725311,-12.911987q-7.078735,-8.538696 -11.154358,-13.745117q-4.075623,-5.206665 -8.151276,-10.829712q-4.075684,-5.622803 -8.580322,-11.662476q-4.504639,-6.039429 -8.151245,-10.829468q-3.646667,-4.789917 -6.220703,-8.538452q-2.574097,-3.748779 -7.078796,-9.78833q-4.504639,-6.039551 -7.722229,-10.829468q-3.21759,-4.789917 -8.580261,-12.495483q-5.362701,-7.705811 -8.151306,-12.079102q-2.788574,-4.373535 -9.009277,-13.745117q-6.220734,-9.371704 -8.151276,-12.912231q-1.930573,-3.540527 -10.725372,-17.910034q-8.79483,-14.370117 -11.583374,-18.743652q-2.788605,-4.373291 -13.942993,-23.949707q-11.154388,-19.57666 -16.731567,-29.572876q-5.577209,-9.996582 -9.86731,-18.74353q-4.290131,-8.746826 -12.012421,-26.240601q-7.72226,-17.493652 -7.72226,-17.910278q0,-0.416626 -7.72226,-19.15979q-7.722229,-18.74353 -12.01236,-29.572998q-4.290131,-10.829468 -12.01239,-32.904724q-7.72226,-22.075623 -15.44455,-47.066772q-7.72226,-24.991028 -17.160568,-60.811768q-9.438324,-35.820129 -13.299454,-53.313721q-3.86113,-17.493408 -10.725357,-50.814758q-6.864227,-33.321533 -8.151276,-43.734558q-1.287048,-10.412903 -5.577194,-63.727417q-4.290131,-53.314453 -5.577179,-80.388184q-1.287048,-27.073792 -3.003098,-57.479675q-1.716064,-30.405823 -4.719162,-99.548126q-3.003098,-69.142029 -3.003098,-97.881958l0,-28.740112l2.788589,-1.457733q2.788589,-1.457916 15.230011,-3.540466q12.441422,-2.082611 34.321152,-5.414825q21.879745,-3.332184 66.497208,-10.82962q44.617493,-7.497406 63.923157,-10.829529q19.305634,-3.332153 51.052734,-10.413025q31.74707,-7.080841 54.913849,-13.328583q23.166779,-6.247772 39.898285,-11.662506q16.731567,-5.414795 26.169922,-8.330399q9.438293,-2.915634 18.018555,-5.831299q8.5802,-2.915649 34.320984,-12.49556q25.740662,-9.579895 48.263733,-19.368134q22.523071,-9.788193 24.024658,-9.99646q1.501526,-0.208282 21.665161,-9.371643q20.163696,-9.163422 36.466309,-16.660751q16.30249,-7.49736 32.176025,-14.994736q15.873535,-7.497314 39.46936,-19.57634l23.595764,-12.079071l5.577209,0z" stroke-width="2px" stroke="#000000" fill-rule="evenodd" fill="#bfbfbf"/>
  <path id="svg_3" d="m789.674683,170.000305l5.172485,0l22.281189,11.370544q22.281311,11.370422 29.443176,14.899231q7.161926,3.528748 48.740356,22.936951q41.578613,19.408203 42.971191,19.604309q1.392578,0.196045 22.082397,9.213989q20.689758,9.018005 31.830383,13.330872q11.140686,4.312988 32.228333,11.762512q21.087891,7.449707 26.658325,9.410095q5.570313,1.960571 13.926025,4.705139q8.355591,2.744568 21.485962,6.665405q13.130127,3.920776 33.422241,9.410095q20.291992,5.489136 39.390137,9.802124q19.098267,4.312866 24.668579,5.489136q5.570435,1.176208 35.411377,6.665405q29.841064,5.48938 37.400757,6.665527q7.559692,1.17627 37.00293,5.88147q29.443115,4.705017 29.841064,4.705017q0.397827,0 28.647339,5.489258q28.249512,5.489258 28.448364,5.685242l0.199097,0.195984l-1.193604,58.421143q-1.193726,58.420715 -5.968262,150.952881q-4.774658,92.532166 -7.559692,129.388245q-2.785278,36.856018 -6.366211,63.125854q-3.580811,26.269653 -8.355469,49.7948q-4.774536,23.525024 -10.344849,47.441833q-5.570435,23.916748 -9.947021,41.952515q-4.376709,18.036011 -10.344849,38.816467q-5.968262,20.780579 -7.161865,25.093506q-1.193726,4.312927 -3.580933,10.978455q-2.387329,6.665405 -5.570435,16.467712q-3.182861,9.801941 -9.946899,28.229919q-6.764038,18.428162 -11.140625,29.406555q-4.376831,10.978394 -10.74292,26.269775q-6.365967,15.291382 -16.312988,36.855835q-9.946899,21.565063 -11.936401,25.093628q-1.98938,3.528809 -14.522705,25.681519q-12.533203,22.152954 -15.119385,26.269653q-2.586304,4.117065 -12.334229,20.780762q-9.748169,16.663574 -12.7323,21.172485q-2.984009,4.509033 -9.151245,14.115112q-6.167114,9.606201 -9.947021,14.899292q-3.779907,5.293091 -8.753296,12.546753q-4.973511,7.25354 -9.549194,13.330811q-4.575562,6.077515 -7.161865,10.194336q-2.586182,4.116821 -7.55957,10.586304q-4.973633,6.46936 -9.549194,12.938721q-4.575684,6.469482 -9.947021,13.331177q-5.37146,6.86145 -9.151367,11.762451q-3.779907,4.900879 -16.11438,18.624023q-12.334473,13.7229 -29.045776,31.366943q-16.711182,17.643677 -29.443604,30.190552q-12.732056,12.546631 -16.90979,15.879395q-4.177917,3.332764 -19.496216,16.859619q-15.318298,13.526978 -18.700378,16.467773q-3.38208,2.940552 -16.710999,14.50708q-13.329041,11.566406 -17.506836,14.899292q-4.177734,3.332642 -9.549072,7.841675q-5.371399,4.508911 -14.920532,12.350708q-9.549194,7.841675 -14.522705,11.566528q-4.973511,3.724731 -9.549133,6.665405q-4.575684,2.940552 -16.710999,10.194336q-12.135376,7.25354 -15.915222,9.802124q-3.779846,2.548462 -8.554443,5.292969q-4.774536,2.744751 -9.94696,6.273438q-5.172485,3.528687 -7.559692,5.097046q-2.38739,1.568481 -10.344971,5.489258q-7.957581,3.920898 -19.098206,9.018066q-11.140686,5.096924 -15.517334,6.665405l-4.376709,1.568359l-4.774536,-1.17627q-4.774536,-1.176147 -10.34491,-3.920898q-5.570374,-2.744507 -18.700378,-9.410034q-13.130066,-6.665405 -15.119446,-8.233887q-1.98938,-1.568359 -10.145996,-6.861328q-8.156555,-5.293335 -12.33429,-7.841919q-4.177734,-2.548462 -16.31311,-9.802002q-12.135315,-7.253784 -16.710999,-10.194336q-4.575562,-2.940552 -9.549011,-6.665283q-4.973572,-3.724854 -11.339661,-8.822021q-6.366089,-5.097168 -16.909912,-13.918945q-10.543823,-8.822021 -18.302429,-15.291382q-7.758606,-6.46936 -22.678955,-19.604248q-14.920471,-13.13501 -19.098145,-16.467773q-4.177673,-3.332642 -18.302307,-15.683228q-14.124756,-12.350708 -15.716309,-13.919067q-1.591492,-1.568481 -14.124695,-13.919189q-12.533264,-12.350464 -17.506775,-17.643799q-4.973511,-5.293091 -21.883484,-23.525146q-16.909912,-18.232056 -20.29187,-22.348877q-3.381958,-4.116821 -9.947021,-12.154541q-6.565002,-8.03772 -10.344849,-12.938721q-3.779846,-4.901245 -7.559692,-10.194458q-3.779968,-5.292969 -7.957703,-10.978394q-4.177673,-5.685181 -7.559692,-10.194214q-3.382019,-4.508911 -5.769287,-8.037476q-2.387268,-3.528931 -6.565002,-9.214233q-4.177734,-5.685181 -7.161865,-10.194214q-2.983948,-4.508911 -7.95752,-11.762451q-4.97345,-7.253784 -7.559631,-11.370483q-2.586182,-4.116943 -8.355469,-12.938843q-5.769287,-8.821899 -7.559692,-12.154785q-1.790527,-3.332886 -9.947021,-16.859375q-8.156616,-13.527222 -10.742798,-17.644165q-2.586182,-4.116699 -12.931152,-22.5448q-10.344849,-18.428223 -15.517334,-27.838135q-5.172485,-9.410156 -9.151245,-17.643921q-3.97876,-8.233765 -11.140625,-24.701294q-7.161865,-16.467529 -7.161865,-16.859741q0,-0.39209 -7.161865,-18.035767q-7.161743,-17.644043 -11.140625,-27.838257q-3.97876,-10.194214 -11.140625,-30.974609q-7.161865,-20.780701 -14.32373,-44.305908q-7.161865,-23.524963 -15.915161,-57.244385q-8.753418,-33.718933 -12.334351,-50.18634q-3.580933,-16.467224 -9.947021,-47.833984q-6.365967,-31.366821 -7.559692,-41.169067q-1.193604,-9.802002 -5.172485,-59.988953q-3.97876,-50.187073 -5.172363,-75.672668q-1.193726,-25.485596 -2.785156,-54.107788q-1.591553,-28.622192 -4.376709,-93.708313q-2.785156,-65.086121 -2.785156,-92.140198l0,-27.054199l2.586182,-1.372192q2.586182,-1.372314 14.124756,-3.332825q11.538574,-1.960388 31.830444,-5.097107q20.29187,-3.13678 61.671509,-10.194397q41.379517,-7.057617 59.284058,-10.194214q17.904663,-3.136719 47.347717,-9.802185q29.443115,-6.665466 50.92865,-12.546753q21.485535,-5.881287 37.002808,-10.978394q15.517395,-5.097107 24.270813,-7.841675q8.753296,-2.744629 16.710938,-5.489258q7.957642,-2.744568 31.830383,-11.762512q23.87262,-9.017944 44.761169,-18.231995q20.88855,-9.21405 22.281189,-9.410034q1.392517,-0.196106 20.092896,-8.821899q18.700378,-8.625916 33.819885,-15.683411q15.119385,-7.057556 29.841003,-14.115112q14.721558,-7.057556 36.605042,-18.427979l21.883362,-11.370544l5.172485,0z" stroke-width="2px" stroke="#000000" fill-rule="evenodd" fill="#000000"/>
 </g>
</svg>